# Blender v2.82 (sub 7) OBJ File: ''
# www.blender.org
o Cube_Cube.001
v -1.531590 0.023701 1.503025
v -1.077012 1.232425 1.077012
v -1.531588 0.023701 -1.503027
v -1.077013 1.232425 -1.077012
v 1.538458 0.023819 1.493653
v 1.077012 1.232425 1.077012
v 1.538456 0.023819 -1.493650
v 1.077012 1.232425 -1.077012
v -1.757011 0.023411 0.000000
v -1.298711 0.155413 1.298711
v -1.298711 1.454124 -0.000000
v -1.298711 0.155413 -1.298711
v -0.000223 0.023471 -1.725544
v -0.000000 1.454124 -1.298711
v 1.298711 0.155413 -1.298711
v 1.761995 0.023547 -0.000000
v 1.298711 1.454124 -0.000000
v 1.298711 0.155413 1.298711
v -0.000223 0.023471 1.725541
v -0.000000 1.454124 1.298711
v -0.000000 1.966883 -0.000000
v 0.000102 0.022790 -0.000000
v -0.000000 0.155413 1.811470
v 1.811470 0.155413 -0.000000
v 0.000000 0.155413 -1.811470
v -1.811470 0.155413 -0.000000
v -1.642674 0.023404 1.109106
v -1.201608 0.926974 1.201608
v -1.201608 1.357021 -0.771561
v -3.895554 0.034300 -3.876757
v -1.133247 0.023420 -1.613448
v 0.771561 1.357021 -1.201608
v 3.901157 0.034682 -3.871402
v 1.647738 0.023527 -1.104064
v 1.201608 1.357021 0.771561
v 3.901157 0.034682 3.871402
v 1.133421 0.023507 1.608144
v -0.771561 1.357021 1.201608
v -1.642676 0.023404 -1.109105
v -3.895554 0.034300 3.876757
v -1.201608 1.357021 0.771561
v -1.201608 0.926974 -1.201608
v 1.133420 0.023507 -1.608143
v -0.771561 1.357021 -1.201608
v 1.201608 0.926974 -1.201608
v 1.647736 0.023527 1.104063
v 1.201608 1.357021 -0.771561
v 1.201608 0.926973 1.201608
v -1.133253 0.023420 1.613451
v 0.771561 1.357021 1.201608
v -0.000000 1.789904 0.818679
v -0.000000 1.789904 -0.818679
v 0.818679 1.789904 -0.000000
v -0.818679 1.789904 -0.000000
v 0.000180 0.023017 1.051555
v 0.000180 0.023017 -1.051553
v -1.070788 0.022980 -0.000000
v 1.072727 0.023060 0.000000
v -0.818679 0.155413 1.634491
v 0.818679 0.155413 1.634491
v -0.002961 0.034491 5.336913
v -0.000000 0.974092 1.634491
v 1.634491 0.155413 0.818678
v 1.634491 0.155413 -0.818679
v 5.357568 0.034754 0.000000
v 1.634491 0.974092 -0.000000
v 0.818679 0.155413 -1.634491
v -0.818679 0.155413 -1.634491
v -0.002961 0.034491 -5.336913
v 0.000000 0.974092 -1.634492
v -1.634491 0.155413 -0.818679
v -1.634492 0.155413 0.818679
v -5.355197 0.034229 0.000000
v -1.634491 0.974092 -0.000000
v -1.473833 0.949518 0.794105
v -4.894424 0.034251 2.354198
v -4.894424 0.034251 -2.354198
v -0.794105 0.949518 -1.473833
v -2.372235 0.034375 -4.877503
v 2.370948 0.034607 -4.872158
v 1.473832 0.949518 -0.794105
v 4.897605 0.034731 -2.350787
v 4.897605 0.034731 2.350787
v 0.794105 0.949518 1.473832
v 2.370948 0.034607 4.872158
v -2.372235 0.034375 4.877503
v 1.092369 0.023223 -1.068444
v -1.090929 0.023142 -1.071300
v -1.090925 0.023142 1.071299
v -0.794105 1.629246 -0.794105
v 0.794105 1.629245 -0.794105
v 0.794105 1.629246 0.794105
v -0.794105 1.629246 0.794105
v 1.092371 0.023223 1.068444
v -0.794105 0.949518 1.473832
v 1.473833 0.949518 0.794104
v 0.794105 0.949518 -1.473833
v -1.473833 0.949518 -0.794105
vt 0.562500 0.187500
vt 0.625000 0.187500
vt 0.625000 0.250000
vt 0.562500 0.250000
vt 0.562500 0.437500
vt 0.625000 0.437500
vt 0.625000 0.500000
vt 0.562500 0.500000
vt 0.562500 0.687500
vt 0.625000 0.687500
vt 0.625000 0.750000
vt 0.562500 0.750000
vt 0.562500 0.937500
vt 0.625000 0.937500
vt 0.625000 1.000000
vt 0.562500 1.000000
vt 0.312500 0.687500
vt 0.375000 0.687500
vt 0.375000 0.750000
vt 0.312500 0.750000
vt 0.812500 0.687500
vt 0.875000 0.687500
vt 0.875000 0.750000
vt 0.812500 0.750000
vt 0.687500 0.687500
vt 0.750000 0.687500
vt 0.750000 0.750000
vt 0.687500 0.750000
vt 0.687500 0.562500
vt 0.750000 0.562500
vt 0.750000 0.625000
vt 0.687500 0.625000
vt 0.812500 0.562500
vt 0.875000 0.562500
vt 0.875000 0.625000
vt 0.812500 0.625000
vt 0.187500 0.687500
vt 0.250000 0.687500
vt 0.250000 0.750000
vt 0.187500 0.750000
vt 0.187500 0.562500
vt 0.250000 0.562500
vt 0.250000 0.625000
vt 0.187500 0.625000
vt 0.312500 0.562500
vt 0.375000 0.562500
vt 0.375000 0.625000
vt 0.312500 0.625000
vt 0.437500 0.937500
vt 0.500000 0.937500
vt 0.500000 1.000000
vt 0.437500 1.000000
vt 0.437500 0.812500
vt 0.500000 0.812500
vt 0.500000 0.875000
vt 0.437500 0.875000
vt 0.562500 0.812500
vt 0.625000 0.812500
vt 0.625000 0.875000
vt 0.562500 0.875000
vt 0.437500 0.687500
vt 0.500000 0.687500
vt 0.500000 0.750000
vt 0.437500 0.750000
vt 0.437500 0.562500
vt 0.500000 0.562500
vt 0.500000 0.625000
vt 0.437500 0.625000
vt 0.562500 0.562500
vt 0.625000 0.562500
vt 0.625000 0.625000
vt 0.562500 0.625000
vt 0.437500 0.437500
vt 0.500000 0.437500
vt 0.500000 0.500000
vt 0.437500 0.500000
vt 0.437500 0.312500
vt 0.500000 0.312500
vt 0.500000 0.375000
vt 0.437500 0.375000
vt 0.562500 0.312500
vt 0.625000 0.312500
vt 0.625000 0.375000
vt 0.562500 0.375000
vt 0.437500 0.187500
vt 0.500000 0.187500
vt 0.500000 0.250000
vt 0.437500 0.250000
vt 0.437500 0.062500
vt 0.500000 0.062500
vt 0.500000 0.125000
vt 0.437500 0.125000
vt 0.562500 0.062500
vt 0.625000 0.062500
vt 0.625000 0.125000
vt 0.562500 0.125000
vt 0.500000 0.000000
vt 0.562500 0.000000
vt 0.625000 0.000000
vt 0.375000 0.062500
vt 0.375000 0.125000
vt 0.375000 0.000000
vt 0.437500 0.000000
vt 0.375000 0.187500
vt 0.375000 0.250000
vt 0.375000 0.312500
vt 0.375000 0.375000
vt 0.375000 0.437500
vt 0.375000 0.500000
vt 0.375000 0.812500
vt 0.375000 0.875000
vt 0.375000 0.937500
vt 0.375000 1.000000
vt 0.250000 0.500000
vt 0.312500 0.500000
vt 0.125000 0.562500
vt 0.125000 0.625000
vt 0.125000 0.500000
vt 0.187500 0.500000
vt 0.125000 0.687500
vt 0.125000 0.750000
vt 0.750000 0.500000
vt 0.812500 0.500000
vt 0.875000 0.500000
vt 0.687500 0.500000
vn -0.7100 0.4979 -0.4979
vn 0.4979 0.4979 -0.7100
vn 0.7100 0.4979 0.4979
vn -0.4979 0.4979 0.7100
vn 0.0007 -1.0000 0.0007
vn -0.4979 0.7100 0.4979
vn 0.1768 0.8099 0.5593
vn 0.2036 0.9577 -0.2036
vn -0.5593 0.8099 -0.1768
vn -0.0001 -1.0000 0.0006
vn -0.0001 -1.0000 -0.0002
vn 0.0006 -1.0000 -0.0001
vn -0.0188 0.9994 0.0282
vn 0.0068 0.9994 0.0342
vn 0.1768 0.5593 0.8099
vn 0.0280 0.9994 0.0187
vn 0.0339 0.9994 -0.0068
vn 0.8099 0.5593 -0.1768
vn 0.0187 0.9994 -0.0282
vn -0.0069 0.9994 -0.0342
vn -0.1768 0.5593 -0.8099
vn -0.0282 0.9994 -0.0188
vn -0.0341 0.9994 0.0068
vn -0.8099 0.5593 0.1768
vn -0.9577 0.2036 0.2036
vn -0.8099 0.1768 0.5593
vn -0.7100 0.4979 0.4979
vn -0.0031 -1.0000 0.0005
vn -0.0027 -1.0000 0.0017
vn -0.0282 0.9994 0.0188
vn -0.0027 -1.0000 -0.0017
vn -0.0031 -1.0000 -0.0005
vn -0.0341 0.9994 -0.0068
vn -0.2036 0.2036 -0.9577
vn -0.5593 0.1768 -0.8099
vn -0.4979 0.4979 -0.7100
vn -0.0005 -1.0000 -0.0031
vn -0.0017 -1.0000 -0.0027
vn -0.0188 0.9994 -0.0282
vn 0.0018 -1.0000 -0.0028
vn 0.0006 -1.0000 -0.0031
vn 0.0068 0.9994 -0.0342
vn 0.9577 0.2036 -0.2036
vn 0.8099 0.1768 -0.5593
vn 0.7100 0.4979 -0.4979
vn 0.0032 -1.0000 -0.0005
vn 0.0028 -1.0000 -0.0017
vn 0.0280 0.9994 -0.0187
vn 0.0028 -1.0000 0.0017
vn 0.0032 -1.0000 0.0005
vn 0.0339 0.9994 0.0068
vn 0.2036 0.2036 0.9577
vn 0.5593 0.1768 0.8099
vn 0.4979 0.4979 0.7100
vn 0.0006 -1.0000 0.0031
vn 0.0018 -1.0000 0.0028
vn 0.0187 0.9994 0.0282
vn -0.0017 -1.0000 0.0027
vn -0.0005 -1.0000 0.0031
vn -0.0069 0.9994 0.0342
vn 0.0002 -1.0000 -0.0002
vn 0.0001 -1.0000 -0.0006
vn 0.0007 -1.0000 -0.0007
vn -0.0006 -1.0000 -0.0001
vn -0.0006 -1.0000 -0.0007
vn -0.0001 -1.0000 -0.0006
vn -0.0006 -1.0000 0.0007
vn -0.0006 -1.0000 0.0001
vn -0.0001 -1.0000 0.0002
vn -0.2036 0.9577 -0.2036
vn -0.1768 0.8099 -0.5593
vn -0.4979 0.7100 -0.4979
vn 0.5593 0.8099 -0.1768
vn 0.4979 0.7100 -0.4979
vn 0.1768 0.8099 -0.5593
vn 0.4979 0.7100 0.4979
vn 0.5593 0.8099 0.1768
vn 0.2036 0.9577 0.2036
vn -0.1768 0.8099 0.5593
vn -0.2036 0.9577 0.2036
vn -0.5593 0.8099 0.1768
vn 0.0001 -1.0000 0.0006
vn 0.0002 -1.0000 0.0002
vn 0.0006 -1.0000 0.0001
vn -0.5593 0.1768 0.8099
vn -0.2036 0.2036 0.9577
vn -0.1768 0.5593 0.8099
vn 0.8099 0.1768 0.5593
vn 0.9577 0.2036 0.2036
vn 0.8099 0.5593 0.1768
vn 0.5593 0.1768 -0.8099
vn 0.2036 0.2036 -0.9577
vn 0.1768 0.5593 -0.8099
vn -0.8099 0.1768 -0.5593
vn -0.9577 0.2036 -0.2036
vn -0.8099 0.5593 -0.1768
s off
f 98/1/1 29/2/1 4/3/1 42/4/1
f 97/5/2 32/6/2 8/7/2 45/8/2
f 96/9/3 35/10/3 6/11/3 48/12/3
f 95/13/4 38/14/4 2/15/4 28/16/4
f 94/17/5 46/18/5 5/19/5 37/20/5
f 93/21/6 41/22/6 2/23/6 38/24/6
f 92/25/7 51/26/7 20/27/7 50/28/7
f 91/29/8 52/30/8 21/31/8 53/32/8
f 90/33/9 29/34/9 11/35/9 54/36/9
f 89/37/10 55/38/10 19/39/10 49/40/10
f 88/41/11 56/42/11 22/43/11 57/44/11
f 87/45/12 34/46/12 16/47/12 58/48/12
f 86/49/13 59/50/13 10/51/13 40/52/13
f 85/53/14 60/54/14 23/55/14 61/56/14
f 84/57/15 50/58/15 20/59/15 62/60/15
f 83/61/16 63/62/16 18/63/16 36/64/16
f 82/65/17 64/66/17 24/67/17 65/68/17
f 81/69/18 47/70/18 17/71/18 66/72/18
f 80/73/19 67/74/19 15/75/19 33/76/19
f 79/77/20 68/78/20 25/79/20 69/80/20
f 78/81/21 44/82/21 14/83/21 70/84/21
f 77/85/22 71/86/22 12/87/22 30/88/22
f 76/89/23 72/90/23 26/91/23 73/92/23
f 75/93/24 41/94/24 11/95/24 74/96/24
f 72/90/25 75/93/25 74/96/25 26/91/25
f 10/97/26 28/98/26 75/93/26 72/90/26
f 28/98/27 2/99/27 41/94/27 75/93/27
f 27/100/28 76/89/28 73/92/28 9/101/28
f 1/102/29 40/103/29 76/89/29 27/100/29
f 40/103/30 10/97/30 72/90/30 76/89/30
f 39/104/31 77/85/31 30/88/31 3/105/31
f 9/101/32 73/92/32 77/85/32 39/104/32
f 73/92/33 26/91/33 71/86/33 77/85/33
f 68/78/34 78/81/34 70/84/34 25/79/34
f 12/87/35 42/4/35 78/81/35 68/78/35
f 42/4/36 4/3/36 44/82/36 78/81/36
f 31/106/37 79/77/37 69/80/37 13/107/37
f 3/105/38 30/88/38 79/77/38 31/106/38
f 30/88/39 12/87/39 68/78/39 79/77/39
f 43/108/40 80/73/40 33/76/40 7/109/40
f 13/107/41 69/80/41 80/73/41 43/108/41
f 69/80/42 25/79/42 67/74/42 80/73/42
f 64/66/43 81/69/43 66/72/43 24/67/43
f 15/75/44 45/8/44 81/69/44 64/66/44
f 45/8/45 8/7/45 47/70/45 81/69/45
f 34/46/46 82/65/46 65/68/46 16/47/46
f 7/109/47 33/76/47 82/65/47 34/46/47
f 33/76/48 15/75/48 64/66/48 82/65/48
f 46/18/49 83/61/49 36/64/49 5/19/49
f 16/47/50 65/68/50 83/61/50 46/18/50
f 65/68/51 24/67/51 63/62/51 83/61/51
f 60/54/52 84/57/52 62/60/52 23/55/52
f 18/63/53 48/12/53 84/57/53 60/54/53
f 48/12/54 6/11/54 50/58/54 84/57/54
f 37/110/55 85/53/55 61/56/55 19/111/55
f 5/19/56 36/64/56 85/53/56 37/110/56
f 36/64/57 18/63/57 60/54/57 85/53/57
f 49/112/58 86/49/58 40/52/58 1/113/58
f 19/111/59 61/56/59 86/49/59 49/112/59
f 61/56/60 23/55/60 59/50/60 86/49/60
f 56/42/61 87/45/61 58/48/61 22/43/61
f 13/114/62 43/115/62 87/45/62 56/42/62
f 43/115/63 7/109/63 34/46/63 87/45/63
f 39/116/64 88/41/64 57/44/64 9/117/64
f 3/118/65 31/119/65 88/41/65 39/116/65
f 31/119/66 13/114/66 56/42/66 88/41/66
f 27/120/67 89/37/67 49/40/67 1/121/67
f 9/117/68 57/44/68 89/37/68 27/120/68
f 57/44/69 22/43/69 55/38/69 89/37/69
f 52/30/70 90/33/70 54/36/70 21/31/70
f 14/122/71 44/123/71 90/33/71 52/30/71
f 44/123/72 4/124/72 29/34/72 90/33/72
f 47/70/73 91/29/73 53/32/73 17/71/73
f 8/7/74 32/125/74 91/29/74 47/70/74
f 32/125/75 14/122/75 52/30/75 91/29/75
f 35/10/76 92/25/76 50/28/76 6/11/76
f 17/71/77 53/32/77 92/25/77 35/10/77
f 53/32/78 21/31/78 51/26/78 92/25/78
f 51/26/79 93/21/79 38/24/79 20/27/79
f 21/31/80 54/36/80 93/21/80 51/26/80
f 54/36/81 11/35/81 41/22/81 93/21/81
f 55/38/82 94/17/82 37/20/82 19/39/82
f 22/43/83 58/48/83 94/17/83 55/38/83
f 58/48/84 16/47/84 46/18/84 94/17/84
f 59/50/85 95/13/85 28/16/85 10/51/85
f 23/55/86 62/60/86 95/13/86 59/50/86
f 62/60/87 20/59/87 38/14/87 95/13/87
f 63/62/88 96/9/88 48/12/88 18/63/88
f 24/67/89 66/72/89 96/9/89 63/62/89
f 66/72/90 17/71/90 35/10/90 96/9/90
f 67/74/91 97/5/91 45/8/91 15/75/91
f 25/79/92 70/84/92 97/5/92 67/74/92
f 70/84/93 14/83/93 32/6/93 97/5/93
f 71/86/94 98/1/94 42/4/94 12/87/94
f 26/91/95 74/96/95 98/1/95 71/86/95
f 74/96/96 11/95/96 29/2/96 98/1/96
